<svg xmlns="http://www.w3.org/2000/svg"><symbol id="facebook-icon" viewBox="0 0 13 26"><path d="M12.089.199V4.32s-3.037-.303-3.798.861c-.416.636-.169 2.5-.206 3.838h4.029c-.34 1.564-.584 2.624-.835 3.978H8.063v12.804H2.481V13.047H.106V9.019h2.349c.12-2.946.165-5.864 1.629-7.35C5.728-.002 7.297.199 12.089.199z"/></symbol><symbol id="instagram-icon" viewBox="0 0 26 26"><path d="M22.7 25.8H3.5a3.2 3.2 0 0 1-3.2-3.201V3.4A3.2 3.2 0 0 1 3.5.199h19.2A3.2 3.2 0 0 1 25.9 3.4v19.199a3.2 3.2 0 0 1-3.2 3.201zM13.1 8.039a4.957 4.957 0 0 0-4.498 2.88h-.005l-.022.055a5.23 5.23 0 0 0-.128.321c-.019.053-.04.104-.057.156a4.386 4.386 0 0 0-.095.34c-.014.053-.03.106-.042.16a4.952 4.952 0 0 0-.061.368c-.007.05-.017.099-.023.15a4.96 4.96 0 1 0 9.862 0c-.006-.051-.016-.1-.023-.15a4.952 4.952 0 0 0-.061-.368c-.012-.054-.028-.107-.042-.16a4.386 4.386 0 0 0-.095-.34c-.017-.052-.038-.103-.057-.156a5.23 5.23 0 0 0-.128-.321l-.022-.055h-.005a4.957 4.957 0 0 0-4.498-2.88zm9.92-3.68a1.28 1.28 0 0 0-1.28-1.279h-2.56a1.28 1.28 0 0 0-1.28 1.279V6.92c0 .707.573 1.28 1.28 1.28h2.56a1.28 1.28 0 0 0 1.28-1.28V4.359zm0 6.56h-2.36a7.839 7.839 0 0 1-7.56 9.92 7.839 7.839 0 0 1-7.56-9.92H3.18v10.72a1.28 1.28 0 0 0 1.28 1.281h17.28a1.28 1.28 0 0 0 1.28-1.281v-10.72z"/></symbol><symbol id="pinterest-icon" viewBox="0 0 21 26"><path d="M9.051 16.854c-.209.833-.42 1.706-.638 2.56-.215.842-.405 1.696-.718 2.47-.519 1.281-1.178 2.519-2.043 3.521-.575.667-.453.401-.626.365-.132-.028-.143-.157-.169-.345-.141-1.018-.045-2.195.007-3.339.06-1.304.334-2.388.589-3.471.484-2.064.946-4.087 1.435-6.164.032-.138.12-.366.09-.445-.222-.577-.366-1.095-.429-1.701a5.415 5.415 0 0 1 .139-1.943c.277-1.058.913-1.995 1.894-2.338.624-.216 1.315-.118 1.735.132.432.259.729.667.867 1.246.148.615.039 1.351-.08 1.891-.267 1.219-.618 2.134-.937 3.31-.158.583-.337 1.182-.189 1.812.136.578.437.976.847 1.275.426.31.93.479 1.625.455 1.228-.043 2.081-.828 2.651-1.568.913-1.185 1.465-2.784 1.675-4.686.067-.614.117-1.319.07-2.014-.088-1.284-.489-2.317-1.127-3.117-.606-.763-1.466-1.369-2.512-1.711-1.037-.338-2.472-.451-3.747-.233-2.318.397-3.952 1.714-4.915 3.533a7.082 7.082 0 0 0-.837 3.41c0 1.051.259 1.865.678 2.5.133.201.328.367.458.597.185.326-.028.811-.119 1.164-.11.425-.122 1.012-.618 1.022-.206.004-.464-.146-.638-.243-1.305-.721-2.097-2.033-2.422-3.734a8.921 8.921 0 0 1 0-3.238 9.232 9.232 0 0 1 4.396-6.144C6.559 1.023 7.818.56 9.35.337a16.62 16.62 0 0 1 1.605-.132 9.65 9.65 0 0 1 4.326.81 8.839 8.839 0 0 1 2.98 2.146c.838.915 1.448 1.979 1.834 3.309.202.692.398 1.432.398 2.287 0 .858-.181 1.613-.308 2.368-.474 2.828-1.819 5.141-3.838 6.458a6.643 6.643 0 0 1-1.754.809c-.667.194-1.428.34-2.243.283a4.586 4.586 0 0 1-1.983-.577c-.54-.305-.994-.679-1.316-1.244z"/></symbol><symbol id="twitter-icon" viewBox="0 0 26 22"><path d="M17.513.601c2.034-.036 3.117.705 4.151 1.647.878-.075 2.019-.565 2.691-.907l.653-.357c-.384 1.037-.904 1.849-1.704 2.466-.178.136-.354.321-.577.408v.013c1.14-.011 2.08-.526 2.973-.805v.013c-.469.745-1.104 1.502-1.781 2.044l-.82.651c.015 1.207-.018 2.359-.243 3.373-1.312 5.895-4.788 9.897-10.289 11.612-1.976.615-5.168.868-7.432.306-1.122-.278-2.136-.593-3.087-1.009a12.156 12.156 0 0 1-1.487-.767l-.461-.28c.51.015 1.108.156 1.678.063.517-.083 1.023-.061 1.5-.165 1.188-.261 2.243-.606 3.151-1.138.441-.258 1.11-.56 1.423-.932-.59.01-1.125-.127-1.563-.281-1.699-.6-2.688-1.703-3.332-3.36.515.057 1.998.191 2.345-.102-.648-.036-1.271-.411-1.717-.69-1.367-.855-2.481-2.289-2.473-4.496l.538.255c.344.145.693.222 1.102.307.173.036.519.137.718.063h-.026c-.264-.307-.695-.512-.961-.843C1.606 6.601.785 4.924 1.304 2.926c.132-.507.341-.954.564-1.367l.026.012c.102.214.33.371.474.55.448.555 1 1.054 1.563 1.494 1.918 1.5 3.645 2.422 6.419 3.104a9.983 9.983 0 0 0 2.358.307c-.236-.687-.16-1.8.025-2.465.468-1.674 1.483-2.879 2.973-3.526a6.406 6.406 0 0 1 1.166-.358l.641-.076z"/></symbol></svg>